<?xml version="1.0" encoding="UTF-8"?>
<svg version="1.1" xmlns="http://www.w3.org/2000/svg" width="192" height="192">
<path d="M0 0 C1.10460571 -0.00846954 2.20921143 -0.01693909 3.34729004 -0.02566528 C6.9972689 -0.04905771 10.64682686 -0.05005697 14.296875 -0.04882812 C16.83366058 -0.05592757 19.37044454 -0.06362624 21.90722656 -0.07189941 C27.22335908 -0.08534889 32.53933613 -0.08709164 37.85546875 -0.08105469 C43.99562866 -0.07441027 50.13518841 -0.09729779 56.27522659 -0.13436842 C62.18965472 -0.16877755 68.10389781 -0.17540149 74.01843262 -0.17127991 C76.53187855 -0.172975 79.04533213 -0.18265467 81.55871582 -0.20042419 C85.07088053 -0.22252495 88.58159085 -0.21295591 92.09375 -0.1953125 C93.65397888 -0.21520737 93.65397888 -0.21520737 95.24572754 -0.23550415 C102.30122873 -0.15302744 102.30122873 -0.15302744 106.10644531 2.77087402 C109.53403765 7.45017582 110.29916395 9.60824496 110.31430054 15.42195129 C110.31883165 16.13898639 110.32336276 16.85602148 110.32803118 17.59478492 C110.34071794 20.00376604 110.33905208 22.41252231 110.33740234 24.8215332 C110.34338499 26.54621167 110.35018993 28.27088745 110.35775757 29.99555969 C110.37545311 34.68573224 110.38011448 39.37583185 110.38138914 44.06603456 C110.38328668 47.98001939 110.39064266 51.89398718 110.39773333 55.80796546 C110.41402892 65.04264003 110.41890127 74.2772756 110.41748047 83.51196289 C110.41627919 93.03968923 110.43737563 102.56718899 110.4689678 112.09485799 C110.49511762 120.27245011 110.50584829 128.44996819 110.50456965 136.6276018 C110.50405957 141.51273378 110.50976787 146.39766453 110.53092575 151.2827549 C110.55028598 155.87846381 110.55044782 160.47377911 110.53589249 165.06950188 C110.53380043 166.75533752 110.53852894 168.44119764 110.5506134 170.12699127 C110.56605676 172.43077063 110.55676519 174.73319131 110.54135132 177.03694153 C110.54244085 178.32539884 110.54353039 179.61385614 110.54465294 180.94135761 C109.95455499 185.06507114 108.65101948 187.20359983 106.046875 190.41992188 C102.86375674 192.54200072 102.05577951 192.67460246 98.40533447 192.70080566 C97.45211304 192.71222595 96.4988916 192.72364624 95.51678467 192.7354126 C94.47258362 192.73764832 93.42838257 192.73988403 92.35253906 192.7421875 C90.70088745 192.75708221 90.70088745 192.75708221 89.01586914 192.77227783 C85.36472086 192.80154288 81.71374641 192.81512911 78.0625 192.82617188 C75.52764887 192.83767379 72.99279779 192.84918927 70.45794678 192.86071777 C65.81849666 192.8790559 61.17909879 192.8916534 56.53962159 192.89771128 C49.72037135 192.90666509 42.90192444 192.94172541 36.08291841 192.99971247 C30.16959812 193.0482444 24.25647677 193.06360426 18.34294891 193.06706238 C15.83112976 193.07311494 13.31931397 193.08917059 10.80762482 193.11543274 C7.29072923 193.14957743 3.77578355 193.14578963 0.25878906 193.1328125 C-0.77731506 193.15124207 -1.81341919 193.16967163 -2.88092041 193.18865967 C-8.93117362 193.11878977 -12.30760966 192.23630388 -16.7183876 188.00032806 C-19.47306324 184.47447193 -19.08355513 180.77690778 -19.09356689 176.49382019 C-19.09653802 175.7849522 -19.09950914 175.07608421 -19.1025703 174.34573537 C-19.11125933 171.96444646 -19.11276571 169.58320781 -19.11425781 167.2019043 C-19.11888584 165.49693189 -19.12391048 163.79196052 -19.12930298 162.08699036 C-19.14243041 157.45054976 -19.1488726 152.81412365 -19.15331364 148.17766738 C-19.15624379 145.28152696 -19.16034849 142.38539051 -19.16481781 139.48925209 C-19.17849361 130.42942453 -19.18815988 121.36960602 -19.1920197 112.30976886 C-19.19650089 101.84867825 -19.21405127 91.38771827 -19.2430203 80.92666739 C-19.26463072 72.84250088 -19.27472364 64.75837113 -19.27606082 56.67417604 C-19.2771093 51.8449653 -19.28302628 47.01587735 -19.30088043 42.18669701 C-19.31735006 37.64357899 -19.31952202 33.1006762 -19.31074142 28.55753899 C-19.30997046 26.89105402 -19.31432165 25.22455753 -19.32419968 23.55810165 C-19.33690572 21.28080294 -19.3310502 19.00426806 -19.32061768 16.72697449 C-19.32208424 15.45326587 -19.3235508 14.17955725 -19.3250618 12.8672514 C-18.82064464 8.19201577 -17.42592044 4.7793494 -13.95019531 1.57116699 C-9.34116638 -0.1992693 -4.89691293 -0.01379693 0 0 Z M38.046875 47.41992188 C36.93342929 49.6468133 36.85044019 51.13727007 36.671875 53.60742188 C36.34845051 56.97642702 35.84906074 58.86119985 34.421875 62.04492188 C32.42185738 66.95405604 33.41429694 70.5221877 35.046875 75.41992188 C37.55135016 76.63862116 37.55135016 76.63862116 40.046875 77.41992188 C41.34340706 75.22376039 41.34340706 75.22376039 40.921875 71.60742188 C40.85771585 67.63668343 41.93675632 65.79611177 44.046875 62.41992188 C45.23303975 57.51710758 45.63482658 54.84393989 43.109375 50.41992188 C42.0884375 48.93492188 42.0884375 48.93492188 41.046875 47.41992188 C40.056875 47.41992188 39.066875 47.41992188 38.046875 47.41992188 Z M52.046875 52.41992188 C51.92570312 53.06058594 51.80453125 53.70125 51.6796875 54.36132812 C50.89637438 58.40442891 50.10192869 62.2547608 48.796875 66.16992188 C47.90498187 70.03479211 48.21412191 71.92102962 50.046875 75.41992188 C52.07931048 76.38869245 52.07931048 76.38869245 54.046875 76.41992188 C55.34390178 73.82586832 55.40940048 71.2895671 55.72265625 68.43945312 C56.046875 66.41992188 56.046875 66.41992188 57.171875 63.79492188 C58.3420964 60.61860665 57.95900334 58.64745291 57.046875 55.41992188 C55.73369238 53.52034106 55.73369238 53.52034106 54.046875 52.41992188 C53.386875 52.41992188 52.726875 52.41992188 52.046875 52.41992188 Z M7.046875 81.41992188 C5.79963592 95.31040648 12.64024629 107.30997881 20.046875 118.41992188 C20.706875 118.41992188 21.366875 118.41992188 22.046875 118.41992188 C22.253125 118.99742188 22.459375 119.57492188 22.671875 120.16992188 C24.53748122 123.22273205 27.0636517 124.51641747 30.046875 126.41992188 C28.86609375 126.44570312 27.6853125 126.47148438 26.46875 126.49804688 C24.91142177 126.55433585 23.35413153 126.61168301 21.796875 126.66992188 C21.01957031 126.68410156 20.24226563 126.69828125 19.44140625 126.71289062 C14.58071009 126.91341258 14.58071009 126.91341258 10.5 129.46679688 C10.02046875 130.11132812 9.5409375 130.75585938 9.046875 131.41992188 C9.83805404 133.41975721 9.83805404 133.41975721 11.046875 135.41992188 C14.2993868 136.50409248 16.68464918 136.55333053 20.10717773 136.56518555 C21.97943275 136.57475533 21.97943275 136.57475533 23.88951111 136.58451843 C25.25316326 136.58604709 26.61681593 136.58716106 27.98046875 136.58789062 C29.37907445 136.5911042 30.7776798 136.59446835 32.17628479 136.59797668 C35.10752136 136.60396354 38.03872845 136.60581702 40.9699707 136.60522461 C44.72380709 136.60512297 48.47745442 136.61877912 52.23124599 136.63599682 C55.11974453 136.64712113 58.0081974 136.64914369 60.89671516 136.64861488 C62.28058588 136.6497942 63.66445781 136.65421327 65.04830742 136.66194725 C66.9845727 136.67175601 68.92089346 136.66760254 70.85717773 136.6628418 C71.95843491 136.66426682 73.05969208 136.66569183 74.19432068 136.66716003 C77.05364636 136.41933498 78.70450284 136.05869719 81.046875 134.41992188 C81.376875 133.42992187 81.706875 132.43992188 82.046875 131.41992188 C80.34594793 129.13372957 78.9687068 127.62300563 76.12304688 126.99609375 C73.84282619 126.80250933 71.58486741 126.71165971 69.296875 126.66992188 C68.10771484 126.62544922 68.10771484 126.62544922 66.89453125 126.58007812 C64.94585406 126.50964401 62.99636005 126.46248705 61.046875 126.41992188 C61.624375 126.01 62.201875 125.60007813 62.796875 125.17773438 C63.539375 124.63890625 64.281875 124.10007813 65.046875 123.54492188 C65.789375 123.01125 66.531875 122.47757813 67.296875 121.92773438 C67.874375 121.43015625 68.451875 120.93257812 69.046875 120.41992188 C69.046875 119.75992188 69.046875 119.09992188 69.046875 118.41992188 C70.7175 118.35804687 70.7175 118.35804687 72.421875 118.29492188 C77.99111659 117.62621366 82.65405976 114.81355168 87.046875 111.41992188 C87.046875 110.75992188 87.046875 110.09992188 87.046875 109.41992188 C87.64113281 109.18402344 88.23539062 108.948125 88.84765625 108.70507812 C93.61183224 105.92103923 96.31521079 100.04908888 97.7578125 94.86523438 C98.4975973 90.5631411 98.4975973 90.5631411 96.8984375 86.67773438 C94.3147546 84.92257426 92.44968161 85.12335223 89.359375 85.23242188 C88.36550781 85.25949219 87.37164062 85.2865625 86.34765625 85.31445312 C85.20876953 85.36666016 85.20876953 85.36666016 84.046875 85.41992188 C83.923125 84.61554688 83.799375 83.81117187 83.671875 82.98242188 C83.3625 81.71398437 83.3625 81.71398437 83.046875 80.41992188 C80.14055166 78.9667602 77.59626757 79.28457526 74.34985352 79.2746582 C73.66187683 79.27129959 72.97390015 79.26794098 72.26507568 79.26448059 C69.98529263 79.25496266 67.70558295 79.25302709 65.42578125 79.25195312 C63.84398874 79.24874121 62.26219654 79.24537719 60.68040466 79.24186707 C57.36236889 79.23587375 54.04435917 79.23402738 50.72631836 79.23461914 C46.47127555 79.23472079 42.21639949 79.22106619 37.96139622 79.20384693 C34.6937737 79.19273745 31.42619164 79.1906996 28.15855217 79.19122887 C26.58964399 79.19004725 25.02073481 79.18561534 23.45184517 79.1778965 C21.2588744 79.16811735 19.06626744 79.17096621 16.87329102 79.17700195 C15.62467789 79.17557693 14.37606476 79.17415192 13.08961487 79.17268372 C9.87126655 79.18636122 9.87126655 79.18636122 7.046875 81.41992188 Z " fill="#6B2AD8" transform="translate(18.953125,-0.419921875)"/>
<path d="M0 0 C11.8627451 2.37254902 11.8627451 2.37254902 16.875 3.8125 C18.47988281 4.25529297 18.47988281 4.25529297 20.1171875 4.70703125 C24.12093738 6.50275105 26.06412693 9.12825386 28 13 C28.61616191 21.18126089 26.63298778 28.40335052 24.5 36.25 C24.13312281 37.63186025 23.76709042 39.01394503 23.40185547 40.39624023 C20.73089194 50.461521 17.95945016 60.50052855 15.15576172 70.52954102 C13.14844852 77.73458925 11.2180531 84.95467185 9.34375 92.1953125 C9.11783173 93.06552536 8.89191345 93.93573822 8.65914917 94.83232117 C7.53909546 99.14852868 6.42631793 103.46640232 5.32470703 107.78735352 C4.91728205 109.36221694 4.50958077 110.93700893 4.1015625 112.51171875 C3.91855591 113.24049225 3.73554932 113.96926575 3.54699707 114.72012329 C2.22702829 119.77297171 2.22702829 119.77297171 0 122 C0 81.74 0 41.48 0 0 Z " fill="#6B2AD8" transform="translate(141,15)"/>
<path d="M0 0 C5.92819695 1.1343247 11.15114172 4.87101168 15.0625 9.375 C16.89537006 14.50703616 16.81872672 17.91419621 14.8515625 22.92578125 C10.55790861 31.83773116 5.33852029 40.23158374 0.203125 48.67578125 C-3.62482378 54.99424518 -7.27139568 61.41322052 -10.90307617 67.84594727 C-13.13657089 71.79035247 -15.38957652 75.72289923 -17.72265625 79.609375 C-18.11332275 80.26389648 -18.50398926 80.91841797 -18.90649414 81.59277344 C-19.44777954 82.28935059 -19.44777954 82.28935059 -20 83 C-20.66 83 -21.32 83 -22 83 C-20.32705206 75.30171925 -18.40133808 67.71245788 -16.2590332 60.13330078 C-13.91159376 51.78060547 -11.71020454 43.38975368 -9.5 35 C-6.4184788 23.3089386 -3.29750648 11.63240978 0 0 Z " fill="#6B2AD8" transform="translate(176,52)"/>
<path d="M0 0 C2.31 0 4.62 0 7 0 C5.94124926 3.40312738 4.99097846 6.01353231 3 9 C2.34 9 1.68 9 1 9 C0.67 9.99 0.34 10.98 0 12 C-2.0625 12.6875 -2.0625 12.6875 -4 13 C-3.52140759 11.39566191 -3.04210442 9.79153584 -2.5625 8.1875 C-2.29566406 7.29417969 -2.02882813 6.40085937 -1.75390625 5.48046875 C-1.19612127 3.64526945 -0.60655425 1.81966274 0 0 Z " fill="#6C2BD9" transform="translate(101,93)"/>
</svg>
