<?xml version="1.0" encoding="UTF-8"?>
<svg version="1.1" xmlns="http://www.w3.org/2000/svg" width="32" height="32">
<path d="M0 0 C7.26 0 14.52 0 22 0 C22 10.56 22 21.12 22 32 C14.74 32 7.48 32 0 32 C0 21.44 0 10.88 0 0 Z M5 14 C5.33 15.65 5.66 17.3 6 19 C6.99 19.33 7.98 19.66 9 20 C9 20.66 9 21.32 9 22 C10.32 22 11.64 22 13 22 C13.33 21.34 13.66 20.68 14 20 C14.99 19.34 15.98 18.68 17 18 C17 16.68 17 15.36 17 14 C13.04 14 9.08 14 5 14 Z " fill="#6B2BD8" transform="translate(0,0)"/>
<path d="M0 0 C1.98 0.66 3.96 1.32 6 2 C5.38379145 4.79387762 4.75750305 7.58480926 4.125 10.375 C3.95097656 11.1690625 3.77695312 11.963125 3.59765625 12.78125 C3.42363281 13.54179687 3.24960937 14.30234375 3.0703125 15.0859375 C2.91320801 15.7876709 2.75610352 16.4894043 2.59423828 17.21240234 C2 19 2 19 0 21 C0 14.07 0 7.14 0 0 Z " fill="#6B2AD8" transform="translate(23,2)"/>
<path d="M0 0 C0.99 0.33 1.98 0.66 3 1 C2.53411505 6.70709064 1.06242216 10.15939723 -2 15 C-2.66 15 -3.32 15 -4 15 C-3.52396226 12.87429688 -3.04407402 10.74945573 -2.5625 8.625 C-2.29566406 7.44164062 -2.02882813 6.25828125 -1.75390625 5.0390625 C-1 2 -1 2 0 0 Z " fill="#6B2AD8" transform="translate(29,8)"/>
</svg>
